<svg width="960" height="760" viewBox="0 0 960 760" fill="none" xmlns="http://www.w3.org/2000/svg">
  <defs>
    <linearGradient id="labbg" x1="94" y1="54" x2="826" y2="658" gradientUnits="userSpaceOnUse">
      <stop stop-color="#FFFFFF"/>
      <stop offset="1" stop-color="#F5F9FD"/>
    </linearGradient>
  </defs>
  <rect width="960" height="760" rx="32" fill="#0F1115"/>
  <rect x="52" y="52" width="856" height="656" rx="32" fill="url(#labbg)"/>
  <rect x="52.75" y="52.75" width="854.5" height="654.5" rx="31.25" stroke="#E7EDF4" stroke-width="1.5"/>
  <rect x="90" y="92" width="232" height="24" rx="12" fill="#DEE7F0"/>
  <rect x="90" y="154" width="780" height="514" rx="32" fill="#FFFFFF"/>
  <rect x="90.75" y="154.75" width="778.5" height="512.5" rx="31.25" stroke="#E6ECF3" stroke-width="1.5"/>
  <rect x="126" y="194" width="166" height="12" rx="6" fill="#D3DDE9"/>
  <rect x="126" y="252" width="208" height="120" rx="28" fill="#F4F8FD"/>
  <rect x="126" y="402" width="208" height="120" rx="28" fill="#F4F8FD"/>
  <rect x="378" y="282" width="204" height="112" rx="28" fill="#0F172A"/>
  <rect x="378" y="420" width="204" height="112" rx="28" fill="#F0EAFF"/>
  <rect x="626" y="252" width="208" height="120" rx="28" fill="#F4F8FD"/>
  <rect x="626" y="402" width="208" height="120" rx="28" fill="#EAF8FF"/>
  <path d="M334 312H378" stroke="#D8E2ED" stroke-width="3"/>
  <path d="M582 338H626" stroke="#D8E2ED" stroke-width="3"/>
  <path d="M334 462H378" stroke="#D8E2ED" stroke-width="3"/>
  <path d="M582 476H626" stroke="#D8E2ED" stroke-width="3"/>
  <rect x="156" y="286" width="96" height="12" rx="6" fill="#D0DCE9"/>
  <rect x="156" y="312" width="128" height="10" rx="5" fill="#E0E8F2"/>
  <rect x="156" y="436" width="96" height="12" rx="6" fill="#D0DCE9"/>
  <rect x="156" y="462" width="132" height="10" rx="5" fill="#E0E8F2"/>
  <rect x="414" y="320" width="128" height="12" rx="6" fill="#67E8F9"/>
  <rect x="414" y="346" width="88" height="10" rx="5" fill="#94A3B8"/>
  <rect x="414" y="458" width="116" height="12" rx="6" fill="#C9B5FF"/>
  <rect x="414" y="484" width="102" height="10" rx="5" fill="#94A3B8"/>
  <rect x="658" y="286" width="96" height="12" rx="6" fill="#D0DCE9"/>
  <rect x="658" y="312" width="124" height="10" rx="5" fill="#E0E8F2"/>
  <rect x="658" y="436" width="96" height="12" rx="6" fill="#D0DCE9"/>
  <rect x="658" y="462" width="150" height="10" rx="5" fill="#E0E8F2"/>
</svg>
